<svg xmlns="http://www.w3.org/2000/svg" xmlns:xlink="http://www.w3.org/1999/xlink" fill="none" version="1.1" width="750" height="750" viewBox="0 0 750 750"><defs><clipPath id="master_svg0_7_00"><rect x="0" y="0" width="750" height="750" rx="75"/></clipPath></defs><g clip-path="url(#master_svg0_7_00)"><rect x="0" y="0" width="750" height="750" rx="75" fill="#3662EC" fill-opacity="1"/><g><path d="M159,187.875L159,418.875Q159,419.584,159.0347812,420.292Q159.0695624,421,159.139041,421.705Q159.20852,422.411,159.312528,423.112Q159.416537,423.813,159.554825,424.508Q159.693113,425.203,159.865347,425.891Q160.03758,426.579,160.24335,427.257Q160.44911,427.935,160.68791,428.603Q160.92672,429.27,161.19798,429.925Q161.46924,430.58,161.77231,431.221Q162.07538,431.861,162.40952,432.487Q162.74367,433.112,163.10809,433.72Q163.4725,434.328,163.86631,434.917Q164.26013,435.506,164.68238,436.076Q165.10464,436.645,165.55432,437.193Q166.00401,437.741,166.48004,438.266Q166.95607,438.791,167.45729,439.293Q167.95852,439.794,168.48374,440.27Q169.00900000000001,440.746,169.5569,441.196Q170.1048,441.645,170.6742,442.068Q171.2435,442.49,171.8329,442.884Q172.4223,443.277,173.0303,443.642Q173.6383,444.006,174.2634,444.34Q174.8886,444.675,175.5293,444.978Q176.1701,445.281,176.825,445.552Q177.4799,445.823,178.1473,446.062Q178.8147,446.301,179.493,446.507Q180.1713,446.712,180.8589,446.885Q181.5465,447.057,182.2418,447.195Q182.937,447.333,183.6382,447.437Q184.3393,447.541,185.0448,447.611Q185.7502,447.68,186.4582,447.715Q187.1662,447.75,187.875,447.75L303,447.75L303,331.875Q303,331.166,303.03499999999997,330.45799999999997Q303.07,329.75,303.139,329.04499999999996Q303.209,328.339,303.313,327.63800000000003Q303.41700000000003,326.937,303.555,326.24199999999996Q303.693,325.547,303.865,324.85900000000004Q304.038,324.171,304.243,323.493Q304.449,322.815,304.688,322.147Q304.927,321.48,305.198,320.825Q305.469,320.16999999999996,305.772,319.529Q306.075,318.889,306.40999999999997,318.26300000000003Q306.744,317.63800000000003,307.108,317.03Q307.472,316.422,307.866,315.83299999999997Q308.26,315.244,308.682,314.674Q309.105,314.105,309.554,313.557Q310.004,313.009,310.48,312.48400000000004Q310.956,311.959,311.457,311.457Q311.959,310.956,312.48400000000004,310.48Q313.009,310.004,313.557,309.554Q314.105,309.105,314.674,308.682Q315.244,308.26,315.83299999999997,307.866Q316.422,307.472,317.03,307.108Q317.63800000000003,306.744,318.26300000000003,306.40999999999997Q318.889,306.075,319.529,305.772Q320.16999999999996,305.469,320.825,305.198Q321.48,304.927,322.147,304.688Q322.815,304.449,323.493,304.243Q324.171,304.038,324.85900000000004,303.865Q325.547,303.693,326.24199999999996,303.555Q326.937,303.41700000000003,327.63800000000003,303.313Q328.339,303.209,329.04499999999996,303.139Q329.75,303.07,330.45799999999997,303.03499999999997Q331.166,303,331.875,303L447.75,303L447.75,187.875Q447.75,187.1662,447.715,186.4582Q447.68,185.7502,447.611,185.0448Q447.541,184.3393,447.437,183.6382Q447.333,182.937,447.195,182.2418Q447.057,181.5465,446.885,180.8589Q446.712,180.1713,446.507,179.493Q446.301,178.8147,446.062,178.1473Q445.823,177.4799,445.552,176.825Q445.281,176.1701,444.978,175.5293Q444.675,174.8886,444.34,174.2634Q444.006,173.6383,443.642,173.0303Q443.277,172.4223,442.884,171.8329Q442.49,171.2435,442.068,170.6742Q441.645,170.1048,441.196,169.5569Q440.746,169.00900000000001,440.27,168.48374Q439.794,167.95852,439.293,167.45729Q438.791,166.95607,438.266,166.48004Q437.741,166.00401,437.193,165.55432Q436.645,165.10464,436.076,164.68238Q435.506,164.26013,434.917,163.86631Q434.328,163.4725,433.72,163.10809Q433.112,162.74367,432.487,162.40952Q431.861,162.07538,431.221,161.77231Q430.58,161.46924,429.925,161.19798Q429.27,160.92672,428.603,160.68791Q427.935,160.44911,427.257,160.24335Q426.579,160.03758,425.891,159.865347Q425.203,159.693113,424.508,159.554825Q423.813,159.416537,423.112,159.312528Q422.411,159.20852,421.705,159.139041Q421,159.0695624,420.292,159.0347812Q419.584,159,418.875,159L187.875,159Q187.1662,159,186.4582,159.0347812Q185.7502,159.0695624,185.0448,159.139041Q184.3393,159.20852,183.6382,159.312528Q182.937,159.416537,182.2418,159.554825Q181.5465,159.693113,180.8589,159.865347Q180.1713,160.03758,179.493,160.24335Q178.8147,160.44911,178.1473,160.68791Q177.4799,160.92672,176.825,161.19798Q176.1701,161.46924,175.5293,161.77231Q174.8886,162.07538,174.2634,162.40952Q173.6383,162.74367,173.0303,163.10809Q172.4223,163.4725,171.8329,163.86631Q171.2435,164.26013,170.6742,164.68238Q170.1048,165.10464,169.5569,165.55432Q169.00900000000001,166.00401,168.48374,166.48004Q167.95852,166.95607,167.45729,167.45729Q166.95607,167.95852,166.48004,168.48374Q166.00401,169.00900000000001,165.55432,169.5569Q165.10464,170.1048,164.68238,170.6742Q164.26013,171.2435,163.86631,171.8329Q163.4725,172.4223,163.10809,173.0303Q162.74367,173.6383,162.40952,174.2634Q162.07538,174.8886,161.77231,175.5293Q161.46924,176.1701,161.19798,176.825Q160.92672,177.4799,160.68791,178.1473Q160.44911,178.8147,160.24335,179.493Q160.03758,180.1713,159.865347,180.8589Q159.693113,181.5465,159.554825,182.2418Q159.416537,182.937,159.312528,183.6382Q159.20852,184.3393,159.139041,185.0448Q159.0695624,185.7502,159.0347812,186.4582Q159,187.1662,159,187.875Z" fill-rule="evenodd" fill="#FFFFFF" fill-opacity="1"/></g><g><rect x="303" y="303" width="288.75" height="288.75" rx="28.875" fill="#FFFFFF" fill-opacity="0.75"/></g></g></svg>