<svg xmlns="http://www.w3.org/2000/svg" xmlns:xlink="http://www.w3.org/1999/xlink" fill="none" version="1.1" width="186" height="40" viewBox="0 0 186 40"><defs><clipPath id="master_svg0_15_970"><rect x="0" y="0" width="186" height="40" rx="0"/></clipPath><clipPath id="master_svg1_7_00"><rect x="5" y="1.666748046875" width="36.666664123535156" height="36.666664123535156" rx="3.666666269302368"/></clipPath></defs><g clip-path="url(#master_svg0_15_970)"><g clip-path="url(#master_svg1_7_00)"><rect x="5" y="1.666748046875" width="36.666664123535156" height="36.666664123535156" rx="3.666666269302368" fill="#3662EC" fill-opacity="1"/><g><path d="M12.7733154296875,10.851397783203126L12.7733154296875,22.144727783203123Q12.7733154296875,22.214127783203125,12.7801129896875,22.283127783203128Q12.7869105296875,22.352127783203123,12.8004402296875,22.420127783203124Q12.8139698296875,22.488127783203126,12.8341013296875,22.554527783203127Q12.8542327296875,22.620927783203125,12.8807724296875,22.684927783203126Q12.9073114296875,22.749027783203125,12.9400034296875,22.810227783203125Q12.9726954296875,22.871327783203125,13.0112244296875,22.929027783203125Q13.0497534296875,22.986627783203126,13.0937494296875,23.040327783203125Q13.1377444296875,23.093927783203124,13.1867834296875,23.142927783203127Q13.2358214296875,23.191927783203127,13.2894304296875,23.235927783203124Q13.3430394296875,23.279927783203124,13.4007024296875,23.318527783203123Q13.4583654296875,23.357027783203122,13.5195274296875,23.389727783203124Q13.5806884296875,23.422427783203126,13.6447604296875,23.448927783203125Q13.7088324296875,23.475427783203124,13.7751954296875,23.495627783203126Q13.841565429687499,23.515727783203126,13.9095754296875,23.529227783203126Q13.9775954296875,23.542827783203123,14.0466154296875,23.549627783203125Q14.1156354296875,23.556427783203127,14.1849854296875,23.556427783203127L19.813235429687502,23.556427783203127L19.813235429687502,17.891187783203126Q19.813235429687502,17.821837783203126,19.8200254296875,17.752827783203124Q19.8268254296875,17.683807783203125,19.8403554296875,17.615787783203125Q19.8538854296875,17.547767783203128,19.8740154296875,17.481407783203124Q19.894145429687498,17.415037783203125,19.9206854296875,17.350967783203124Q19.9472254296875,17.286897783203123,19.9799154296875,17.225737783203126Q20.0126154296875,17.164567783203125,20.0511354296875,17.106907783203127Q20.0896654296875,17.049247783203125,20.1336654296875,16.995637783203126Q20.1776654296875,16.942027783203123,20.2266954296875,16.892987783203125Q20.2757354296875,16.843947783203124,20.3293454296875,16.799957783203126Q20.3829554296875,16.755957783203126,20.4406154296875,16.717427783203124Q20.4982854296875,16.678897783203126,20.5594454296875,16.646207783203124Q20.6206054296875,16.613517783203125,20.684675429687502,16.586977783203125Q20.7487454296875,16.560437783203124,20.815115429687502,16.540307783203126Q20.881475429687498,16.520177783203124,20.949495429687502,16.506647783203125Q21.0175154296875,16.493117783203125,21.0865354296875,16.486317783203127Q21.1555454296875,16.479527783203125,21.2248954296875,16.479517783203125L26.8900154296875,16.479517783203125L26.8900154296875,10.851397783203126Q26.8900154296875,10.782047783203126,26.8832154296875,10.713027783203126Q26.876415429687498,10.644007783203126,26.8628154296875,10.575987783203125Q26.8493154296875,10.507977783203124,26.8292154296875,10.441607783203125Q26.8090154296875,10.375244783203126,26.7825154296875,10.311172783203125Q26.7560154296875,10.247101783203124,26.7233154296875,10.185939783203125Q26.690615429687497,10.124777783203125,26.6521154296875,10.067114783203126Q26.6135154296875,10.009451783203126,26.5695154296875,9.955842783203124Q26.525515429687502,9.902233783203124,26.476515429687502,9.853195783203125Q26.4275154296875,9.804156783203124,26.3739154296875,9.760161783203126Q26.3202154296875,9.716165783203126,26.2626154296875,9.677636783203125Q26.2049154296875,9.639107783203125,26.1438154296875,9.606415783203126Q26.0826154296875,9.573723783203125,26.0185154296875,9.547184783203125Q25.9545154296875,9.520645083203124,25.888115429687502,9.500513683203126Q25.8217154296875,9.480382183203124,25.7537154296875,9.466852583203124Q25.685715429687498,9.453322883203125,25.616715429687503,9.446525343203126Q25.5477154296875,9.439727783203125,25.4783154296875,9.439727783203125L14.1849854296875,9.439727783203125Q14.1156354296875,9.439727783203125,14.0466154296875,9.446525343203126Q13.9775954296875,9.453322883203125,13.9095754296875,9.466852583203124Q13.841565429687499,9.480382183203124,13.7751954296875,9.500513683203126Q13.7088324296875,9.520645083203124,13.6447604296875,9.547184783203125Q13.5806894296875,9.573723783203125,13.5195274296875,9.606415783203126Q13.4583654296875,9.639107783203125,13.4007024296875,9.677636783203125Q13.3430394296875,9.716165783203126,13.2894304296875,9.760161783203126Q13.2358214296875,9.804156783203124,13.1867834296875,9.853195783203125Q13.1377444296875,9.902233783203124,13.0937494296875,9.955842783203124Q13.0497534296875,10.009451783203126,13.0112244296875,10.067114783203126Q12.9726954296875,10.124777783203125,12.9400034296875,10.185939783203125Q12.9073114296875,10.247100783203125,12.8807724296875,10.311172783203125Q12.8542327296875,10.375244783203126,12.8341013296875,10.441607783203125Q12.8139698296875,10.507977783203124,12.8004402296875,10.575987783203125Q12.7869105296875,10.644007783203126,12.7801129896875,10.713027783203126Q12.7733154296875,10.782047783203126,12.7733154296875,10.851397783203126Z" fill-rule="evenodd" fill="#FFFFFF" fill-opacity="1"/></g><g><rect x="19.813232421875" y="16.4794921875" width="14.116667747497559" height="14.116667747497559" rx="1.411666750907898" fill="#FFFFFF" fill-opacity="0.75"/></g></g><g><path d="M79.76668701171874,21.300048046875L57.13335701171875,21.300048046875L58.63335701171875,8.766748046875001Q58.76668701171875,7.666748046875,59.40001701171875,7.083448046874999Q60.03335701171875,6.500048046875001,61.13335701171875,6.500048046875001L78.69998701171875,6.500048046875001Q79.86668701171875,6.500048046875001,80.49998701171876,7.1334480468749994Q81.13338701171875,7.766748046875001,81.13338701171875,8.933448046875Q81.13338701171875,9.300048046874998,81.09998701171875,9.500048046875001L79.76668701171874,21.300048046875ZM68.29998701171874,9.266748046875001L61.86668701171875,9.266748046875001L61.46668701171875,12.600048046875L67.89998701171875,12.600048046875L68.29998701171874,9.266748046875001ZM77.29998701171874,12.600048046875L77.69998701171875,9.266748046875001L71.46668701171875,9.266748046875001L71.06668701171876,12.600048046875L77.29998701171874,12.600048046875ZM67.59998701171875,15.233448046875L61.16668701171875,15.233448046875L60.80001701171875,18.566748046875L67.19998701171875,18.566748046875L67.59998701171875,15.233448046875ZM70.73338701171875,15.233448046875L70.33338701171874,18.566748046875L76.63338701171875,18.566748046875L76.99998701171876,15.233448046875L70.73338701171875,15.233448046875ZM69.53338701171876,28.400048046875L67.56668701171876,23.066748046875L70.59998701171875,23.066748046875L72.73338701171875,28.400048046875L69.53338701171876,28.400048046875ZM75.79998701171874,32.700048046875Q74.56668701171876,33.066748046875,72.83338701171874,33.300048046875Q71.09998701171875,33.533448046875,69.33338701171874,33.533448046875L64.06668701171876,33.533448046875Q62.73338701171875,33.533448046875,62.01668701171875,32.816748046875Q61.30001701171875,32.100048046875,61.30001701171875,30.900048046875Q61.30001701171875,30.366748046875003,61.36668701171875,30.066748046875L62.26668701171875,23.133448046875003L65.46668701171875,23.133448046875003L64.69998701171875,29.800048046875L64.66668701171875,30.066748046875Q64.66668701171875,30.366748046875003,64.83338701171876,30.466748046874997Q64.99998701171874,30.566748046875,65.33338701171876,30.566748046875L69.26668701171874,30.566748046875Q70.96668701171875,30.566748046875,72.78338701171876,30.300048046875Q74.59998701171875,30.033448046875,76.09998701171875,29.566748046875L75.79998701171874,32.700048046875ZM75.36668701171875,23.366748046875003L78.49998701171876,23.366748046875003L82.03338701171876,31.300048046875L78.56668701171876,31.300048046875L75.36668701171875,23.366748046875003ZM53.70001701171875,31.366748046875003L57.03335701171875,23.400048046875L60.26668701171875,23.400048046875L57.16668701171875,31.366748046875003L53.70001701171875,31.366748046875003ZM99.13338701171875,5.466748046875001Q96.89998701171875,8.433448046875,94.96668701171875,10.900048046875Q93.89998701171875,12.300048046874998,91.76668701171874,14.766748046875001L91.29998701171874,15.300048046874998L87.03338701171876,15.300048046874998Q88.99998701171876,13.133448046875,91.49998701171876,10.066748046874999Q93.13338701171875,8.033448046875002,95.03338701171876,5.466748046875001L99.13338701171875,5.466748046875001ZM115.89998701171875,6.900048046875L115.56668701171876,9.966748046875L100.59998701171875,9.966748046875L100.93338701171875,6.900048046875L115.89998701171875,6.900048046875ZM99.46668701171875,12.466748046875Q97.53338701171876,15.166748046875,95.96668701171875,17.233448046875L93.96668701171875,33.833448046875L90.69998701171875,33.833448046875L92.19998701171875,21.866748046875003L90.76668701171874,23.500048046875L86.66668701171875,23.500048046875Q89.96668701171875,19.800048046875,91.79998701171874,17.466748046875Q93.66668701171875,15.133448046875,95.56668701171876,12.466748046875L99.46668701171875,12.466748046875ZM115.76668701171874,18.300048046875L111.23338701171875,18.300048046875L109.69998701171875,31.533448046875Q109.39998701171875,34.100048046875,107.16668701171875,34.100048046875Q106.46668701171875,34.100048046875,105.66668701171875,33.916748046875Q104.86668701171875,33.733448046875,103.39998701171875,33.333448046875Q102.09998701171875,32.966748046875,100.56668701171876,32.366748046875L100.93338701171875,29.233448046874997Q103.03338701171876,29.966748046874997,105.96668701171875,30.666748046875Q106.03338701171876,30.700048046874997,106.16668701171875,30.700048046874997Q106.46668701171875,30.700048046874997,106.53338701171876,30.233448046874997L107.86668701171875,18.300048046875L98.89998701171875,18.300048046875L99.23338701171875,15.200048046875L116.13338701171875,15.200048046875L115.76668701171874,18.300048046875ZM148.06668701171876,29.466748046874997L147.73338701171875,32.600048046875L120.86668701171875,32.600048046875L121.23338701171875,29.466748046874997L132.06668701171876,29.466748046874997L134.33338701171874,11.066748046874999L123.86668701171875,11.066748046874999L124.23338701171875,7.966748046875001L148.03338701171873,7.966748046875001L147.66668701171875,11.066748046874999L137.89998701171874,11.066748046874999L135.63338701171875,29.466748046874997L148.06668701171876,29.466748046874997ZM183.39968701171875,9.433448046875L182.99968701171875,12.466748046875L172.89968701171875,12.466748046875L172.29968701171873,16.600048046875L178.06668701171876,16.600048046875Q179.49968701171875,16.600048046875,180.21668701171876,17.350048046875Q180.93368701171875,18.100048046875,180.93368701171875,19.466748046874997Q180.93368701171875,19.866748046875003,180.89968701171875,20.066748046875Q180.69968701171874,22.133448046875003,180.19968701171874,26.033448046875Q179.89968701171875,28.200048046874997,179.26668701171874,31.666748046875Q178.83368701171875,33.900048046875,176.86668701171874,33.900048046875Q176.49968701171875,33.900048046875,176.03368701171877,33.800048046875Q174.86668701171874,33.600048046875,173.46668701171876,33.233448046875Q171.93368701171875,32.833448046875,170.96668701171876,32.466748046875L171.33368701171875,29.433448046875Q172.96668701171876,30.066748046875,175.53368701171877,30.633448046875003L175.76668701171874,30.633448046875003Q176.29968701171873,30.633448046875003,176.39968701171875,30.200048046874997Q176.69968701171877,28.566748046875,177.19968701171877,25.000048046875Q177.56668701171876,22.066748046875,177.76668701171874,19.600048046875003L171.76668701171874,19.600048046875003Q169.96668701171876,27.933448046875,165.39968701171875,34.000048046875L161.99968701171875,33.200048046875Q164.89968701171875,29.600048046875003,166.53368701171877,25.866748046875003Q168.19968701171877,22.066748046875,168.96668701171876,17.633448046875L169.66668701171875,12.466748046875L165.93368701171875,12.466748046875L166.33368701171875,9.433448046875L173.43368701171875,9.433448046875L172.23368701171876,5.6334480468749994L175.53368701171877,5.6334480468749994L176.79968701171873,9.433448046875L183.39968701171875,9.433448046875ZM164.29968701171873,27.000048046875Q162.03368701171877,27.700048046874997,158.73368701171876,28.533448046875Q156.39968701171875,29.166748046875,153.26668701171874,29.900048046875L153.66668701171875,26.633448046875003L155.39968701171875,26.266748046875Q156.03368701171877,26.166748046875,157.29968701171873,25.833448046875L158.53368701171877,15.600048046875L154.73368701171876,15.600048046875L155.09968701171874,12.600048046875L158.89968701171875,12.600048046875L159.73368701171876,5.7000480468750006L162.86668701171874,5.7000480468750006L162.03368701171877,12.600048046875L165.53368701171877,12.600048046875L165.16668701171875,15.600048046875L161.66668701171875,15.600048046875L160.49968701171875,25.033448046875Q162.56668701171876,24.533448046875,164.63368701171873,23.933448046875L164.29968701171873,27.000048046875Z" fill="#3D3D3D" fill-opacity="1"/></g></g></svg>