<svg xmlns="http://www.w3.org/2000/svg" xmlns:xlink="http://www.w3.org/1999/xlink" fill="none" version="1.1" width="500.0000005947182" height="500.0000005947182" viewBox="0 0 500.0000005947182 500.0000005947182"><defs><clipPath id="master_svg0_3_4098"><rect x="5.947181636045684e-7" y="0" width="500" height="500" rx="125"/></clipPath></defs><g transform="matrix(1,1.1894363272091368e-9,-1.1894363272091368e-9,1,0,-7.073793882423804e-16)" clip-path="url(#master_svg0_3_4098)"><rect x="5.947181636045684e-7" y="0" width="500" height="500" rx="125" fill="#FFFFFF" fill-opacity="1"/><g><path d="M285.45651304589006,257.0383102539063C285.45651304589006,259.28971025390626,285.86143204589007,261.52261025390624,286.6519330458901,263.6307102539063L290.59092304589007,274.13461025390626C290.92250304589004,275.0188102539063,291.32032304589006,275.8768102539062,291.78099304589006,276.7011102539062L361.6758130458901,401.7765102539063C362.18031304589005,402.6785102539062,362.7585130458901,403.5385102539062,363.4046130458901,404.3465102539062L365.2524130458901,406.65551025390624C368.21771304589004,410.36251025390624,372.7071130458901,412.52051025390625,377.45381304589006,412.52051025390625L387.60851304589005,412.52051025390625C390.7995130458901,412.52051025390625,393.93751304589006,411.70651025390623,396.72651304589004,410.15751025390625L403.33451304589005,406.48651025390626C407.2315130458901,404.32151025390624,410.23051304589006,400.84051025390625,411.79651304589004,396.66651025390627L413.53151304589005,392.0385102539062C414.5015130458901,389.45351025390624,414.88851304589,386.6855102539063,414.66651304589004,383.93351025390626L400.2415130458901,205.42961025390625C400.07051304589004,203.31871025390626,399.5445130458901,201.25191025390626,398.68451304589007,199.31661025390625L395.4655130458901,192.07341025390625C393.5425130458901,187.74696025390625,390.05551304589005,184.30672025390626,385.70451304589005,182.44171025390625L384.3876130458901,181.87747025390624C381.08611304589004,180.46257025390625,377.44811304589007,180.02437625390624,373.90521304589004,180.61487125390624L372.0413130458901,180.92552025390626C369.42121304589006,181.36221025390626,366.92351304589005,182.34989025390624,364.7134130458901,183.82331025390624L362.8416130458901,185.07117025390625C362.56981304589004,185.25236025390626,362.2934130458901,185.42642025390626,362.01251304589005,185.59319025390624L305.55501304589006,219.11481025390626C303.4415130458901,220.36971025390625,301.59511304589006,222.02731025390625,300.12031304589004,223.99361025390624L297.30261304589004,227.75061025390625C296.9154130458901,228.26681025390624,296.55521304589007,228.80261025390627,296.2232130458901,229.35591025390625L291.4599730458901,237.29461025390626C291.21275304589005,237.70661025390626,290.98143304589007,238.12801025390624,290.76654304589005,238.55781025390624L287.43864304589005,245.21361025390627C286.1351360458901,247.82061025390624,285.45651304589006,250.69531025390626,285.45651304589006,253.61001025390624L285.45651304589006,257.0383102539063Z" fill="#FA5151" fill-opacity="1"/></g><g transform="matrix(0.010348807089030743,-0.9998981356620789,0.9998981356620789,0.010348807089030743,-37.646669259116436,392.6945813889672)"><path d="M179.56572019921035,292.67653759765625C179.56572019921035,294.92793759765624,179.97063819921036,297.16093759765624,180.76114019921036,299.26893759765625L184.69823019921034,309.76783759765624C185.02981019921035,310.65203759765626,185.42763019921034,311.50993759765623,185.88829019921036,312.33433759765626L255.75902019921034,437.36603759765626C256.26352019921035,438.2690375976563,256.84172019921033,439.12803759765626,257.48772019921034,439.93603759765625L259.33462019921035,442.2450375976563C262.29892019921033,445.95003759765626,266.78682019921035,448.10703759765624,271.53192019921033,448.10703759765624L281.68172019921036,448.10703759765624C284.87272019921033,448.10703759765624,288.01072019921037,447.29403759765626,290.79972019921036,445.74403759765624L297.40172019921033,442.07603759765624C301.2987201992104,439.9110375976562,304.29772019921035,436.43103759765626,305.8637201992103,432.25603759765625L307.5967201992104,427.63303759765626C308.56672019921035,425.0480375976563,308.95372019921035,422.2810375976562,308.7317201992104,419.52903759765627L294.31172019921036,241.08753759765625C294.14172019921034,238.97663759765624,293.61472019921035,236.90983759765624,292.75472019921034,234.97453759765625L289.53772019921036,227.73703759765624C287.61572019921033,223.41057759765624,284.12872019921036,219.97034759765626,279.77672019921033,218.10533759765624L278.46502019921036,217.54299759765624C275.16362019921036,216.12809759765625,271.5256201992104,215.68990359765624,267.9826201992104,216.28039959765624L266.12262019921036,216.59040759765625C263.50242019921035,217.02709759765625,261.00482019921037,218.01477759765626,258.79472019921036,219.48820759765624L256.92482019921033,220.73478759765624C256.65302019921035,220.91597759765625,256.37652019921035,221.09004759765625,256.09572019921035,221.25681759765624L199.65852019921036,254.76643759765625C197.54502019921034,256.02123759765624,195.69862019921035,257.67883759765624,194.22382019921034,259.64513759765623L191.40802019921034,263.39963759765624C191.02082019921033,263.91583759765626,190.66052019921034,264.45163759765626,190.32862019921035,265.00493759765624L185.56728019921036,272.9404375976562C185.32005019921036,273.35253759765624,185.08874019921035,273.77393759765624,184.87385019921035,274.20363759765627L181.54785019921036,280.85563759765625C180.24434319921033,283.46273759765626,179.56572019921035,286.33733759765624,179.56572019921035,289.25213759765626L179.56572019921035,292.67653759765625Z" fill="#FF8F1F" fill-opacity="1"/></g><g transform="matrix(-0.9998837113380432,-0.008244626224040985,0.008244626224040985,-0.9998837113380432,426.2711381879683,644.1069291831609)"><path d="M214.47207701073378,398.4693187988281C214.47207701073378,400.7207187988281,214.8769940107338,402.9537187988281,215.6674870107338,405.06161879882814L219.60324701073378,415.55701879882815C219.93482701073378,416.4412187988281,220.33263701073378,417.2992187988281,220.79330701073377,418.1235187988281L290.64707701073377,543.1250187988281C291.1515770107338,544.0280187988282,291.72977701073376,544.8870187988282,292.37577701073377,545.6950187988282L294.2219770107338,548.0030187988282C297.18557701073377,551.7070187988281,301.6723770107338,553.864018798828,306.41637701073375,553.864018798828L316.56307701073376,553.864018798828C319.7530770107338,553.864018798828,322.8910770107338,553.0500187988281,325.6800770107338,551.5010187988281L332.2790770107338,547.8350187988281C336.1750770107338,545.6700187988281,339.1750770107338,542.1890187988281,340.7400770107338,538.0150187988281L342.4730770107338,533.3960187988281C343.4420770107338,530.8110187988282,343.8290770107338,528.0430187988281,343.60707701073375,525.2910187988282L329.1910770107338,346.89421879882815C329.02007701073376,344.78331879882813,328.4940770107338,342.7164187988281,327.6340770107338,340.78121879882815L324.41907701073376,333.5476187988281C322.49607701073376,329.2212287988281,319.01007701073377,325.7809887988281,314.6580770107338,323.9159787988281L313.34907701073377,323.35497879882814C310.04767701073376,321.94007979882815,306.4096770107338,321.50188579882814,302.8666770107338,322.0923817988281L301.0092770107338,322.40194879882813C298.38917701073376,322.8386287988281,295.89147701073375,323.82631879882814,293.6813770107338,325.29974879882815L291.8128770107338,326.5454387988281C291.5410770107338,326.72662879882813,291.2645770107338,326.9006887988281,290.9837770107338,327.0674587988281L234.56077701073377,360.56861879882814C232.4473770107338,361.82341879882813,230.60087701073377,363.48101879882813,229.12617701073378,365.4473187988281L226.31167701073377,369.2000187988281C225.9245770107338,369.7162187988281,225.56427701073378,370.25201879882815,225.23227701073378,370.8053187988281L220.4722970107338,378.73861879882816C220.2250670107338,379.15061879882813,219.9937570107338,379.57201879882814,219.7788570107338,380.00181879882814L216.4542070107338,386.6511187988281C215.15070001073377,389.25811879882815,214.47207701073378,392.1328187988281,214.47207701073378,395.04751879882815L214.47207701073378,398.4693187988281Z" fill="#3670F7" fill-opacity="1"/></g><g transform="matrix(0.006433132570236921,0.9999212026596069,-0.9999212026596069,0.006433132570236921,601.2515403065718,-38.43343740142541)"><path d="M319.98410093651506,360.6432666015625C319.98410093651506,362.8945666015625,320.3890179365151,365.12756660156253,321.1795209365151,367.2355666015625L325.11622093651505,377.7334666015625C325.4478009365151,378.6176666015625,325.84562093651505,379.4755666015625,326.30629093651504,380.2999666015625L396.1722009365151,505.3232666015625C396.6767009365151,506.2262666015625,397.25490093651507,507.08526660156247,397.9009009365151,507.89326660156246L399.747600936515,510.2012666015625C402.7116009365151,513.9062666015625,407.19920093651507,516.0632666015625,411.94400093651507,516.0632666015625L422.09310093651504,516.0632666015625C425.2831009365151,516.0632666015625,428.42210093651505,515.2502666015625,431.2111009365151,513.7002666015625L437.8121009365151,510.0332666015625C441.70910093651503,507.8682666015625,444.70810093651505,504.3872666015625,446.27310093651505,500.2132666015625L448.00710093651503,495.5912666015625C448.9761009365151,493.0062666015625,449.363100936515,490.23926660156246,449.14110093651504,487.48626660156253L434.72210093651506,309.0582666015625C434.55210093651505,306.9473666015625,434.02510093651506,304.8804666015625,433.16510093651505,302.9452666015625L429.94910093651504,295.7088666015625C428.02610093651504,291.3824266015625,424.54010093651505,287.9421866015625,420.18810093651507,286.0771766015625L418.87700093651506,285.5152166015625C415.57560093651506,284.1003256015625,411.9376009365151,283.6621326015625,408.3946009365151,284.2526276015625L406.53530093651506,284.5625066015625C403.9152009365151,284.9991966015625,401.41750093651507,285.9868866015625,399.20740093651506,287.4603166015625L397.3379009365151,288.7066266015625C397.06610093651506,288.8878266015625,396.78970093651503,289.0618966015625,396.50880093651506,289.2286666015625L340.0757009365151,322.7357666015625C337.9623009365151,323.9906666015625,336.1158009365151,325.6482666015625,334.64110093651504,327.6145666015625L331.82560093651506,331.3684666015625C331.4385009365151,331.8846666015625,331.0782009365151,332.4205666015625,330.74620093651504,332.9738666015625L325.98527093651506,340.9086666015625C325.73805093651504,341.32076660156247,325.50673093651505,341.74216660156253,325.2918409365151,342.17196660156253L321.96623093651505,348.8231666015625C320.6627239365151,351.4301666015625,319.98410093651506,354.3048666015625,319.98410093651506,357.2195666015625L319.98410093651506,360.6432666015625Z" fill="#8A38F5" fill-opacity="1"/></g></g></svg>