<svg xmlns="http://www.w3.org/2000/svg" xmlns:xlink="http://www.w3.org/1999/xlink" fill="none" version="1.1" width="60" height="60" viewBox="0 0 60 60"><defs><clipPath id="master_svg0_6_0305"><rect x="0" y="0" width="60" height="60" rx="15"/></clipPath></defs><g clip-path="url(#master_svg0_6_0305)"><g><path d="M4.21695,43.5168L1.33345,40.6333C0.04472000000000009,39.3446,0.04472000000000009,37.2551,1.33345,35.9664L8.47938,28.8205C9.7655,27.5344,9.7685,25.4501,8.48613,24.1603L1.3094700000000001,16.941940000000002C0.031220000000000026,15.65626,0.029530000000000056,13.58015,1.3056899999999998,12.292390000000001L4.217,9.35462C5.50399,8.05593,7.60158,8.05118,8.89444,9.34403L23.6421,24.0917C24.9308,25.3804,24.9308,27.4698,23.6421,28.7586L8.88385,43.5168C7.59512,44.8055,5.50568,44.8055,4.21695,43.5168M31.815199999999997,37.338899999999995L56.1032,37.338899999999995C57.9257,37.338899999999995,59.4032,38.8163,59.4032,40.6389L59.4032,44.7467C59.4032,46.5693,57.9257,48.0467,56.1032,48.0467L31.815199999999997,48.0467C29.9927,48.0467,28.5152,46.5693,28.5152,44.7467L28.5152,40.6389C28.5152,38.8163,29.9927,37.338899999999995,31.815199999999997,37.338899999999995" fill="#00B578" fill-opacity="1"/></g></g></svg>