<svg xmlns="http://www.w3.org/2000/svg" xmlns:xlink="http://www.w3.org/1999/xlink" fill="none" version="1.1" width="338" height="60" viewBox="0 0 338 60"><defs><clipPath id="master_svg0_6_5"><rect x="0" y="0" width="338" height="60" rx="0"/></clipPath><clipPath id="master_svg1_6_003"><rect x="0" y="0" width="60" height="60" rx="10"/></clipPath></defs><g clip-path="url(#master_svg0_6_5)"><g><path d="M71.1289,44Q68.3125,44,66.84961,43.2891Q65.38672,42.5781,64.88086,40.9648Q64.375,39.3516,64.375,36.6719L64.375,12.1172Q64.375,9.3828,64.88086,7.783200000000001Q65.38672,6.1836,66.84961,5.4863Q68.3125,4.7890999999999995,71.1289,4.7890999999999995L79.5234,4.7890999999999995Q85.4023,4.7890999999999995,89.8184,6.5390999999999995Q94.2344,8.289100000000001,96.6953,12.459Q99.1562,16.6289,99.1562,23.9023Q99.1562,31.175800000000002,96.6953,35.5918Q94.2344,40.0078,89.8184,42.0039Q85.4023,44,79.5234,44L71.1289,44ZM76.3242,11.9805Q74.5195,11.9805,73.8633,12.746099999999998Q73.207,13.511700000000001,73.207,15.371099999999998L73.207,33.418Q73.207,35.25,73.8633,36.043Q74.5195,36.8359,76.3242,36.8359L77.582,36.8359Q83.4336,36.8359,86.6465,33.9648Q89.8594,31.0938,89.8594,24.011699999999998Q89.8594,19.2812,88.3965,16.6699Q86.9336,14.058599999999998,84.1719,13.0195Q81.4102,11.9805,77.5273,11.9805L76.3242,11.9805ZM119.0352,44.6836Q114.41409999999999,44.6836,110.9961,43.1934Q107.5781,41.7031,105.6914,38.5586Q103.8047,35.4141,103.8047,30.4375Q103.8047,22.9727,107.6328,19.1445Q111.46090000000001,15.316400000000002,117.8047,15.316400000000002Q121.9336,15.316400000000002,124.791,16.793Q127.6484,18.2695,129.1387,20.8672Q130.6289,23.4648,130.6289,26.800800000000002Q130.6289,30.054699999999997,128.96089999999998,31.339799999999997Q127.293,32.625,124.0938,32.625L112.36330000000001,32.625Q112.582,35.4414,114.4277,36.918Q116.27340000000001,38.3945,119.4453,38.3945Q121.96090000000001,38.3945,123.4785,37.6426Q124.9961,36.8906,125.5977,36.4531Q126.1172,36.0703,126.7734,36.0977Q127.293,36.0977,128.2637,36.3027Q129.2344,36.5078,130.1914,37.0547Q130.875,37.4102,130.875,38.0391Q130.875,38.3945,130.73829999999998,39.0508Q130.6562,39.4336,130.4648,40.1582Q130.27339999999998,40.8828,129.9727,41.5117Q129.8086,41.8125,129.4531,42.0859Q128.9062,42.4688,127.6895,43.0977Q126.4727,43.7266,124.3672,44.2051Q122.26169999999999,44.6836,119.0352,44.6836ZM112.3086,27.0195L121.2227,27.0195Q122.6172,27.0195,122.6172,25.7344Q122.6172,23.793,121.40039999999999,22.4668Q120.1836,21.1406,117.75,21.1406Q115.0977,21.1406,113.8535,22.8359Q112.6094,24.5312,112.3086,27.0195ZM142.55079999999998,41.457Q141.0469,39.0781,139.584,35.9746Q138.1211,32.8711,136.9316,29.685499999999998Q135.7422,26.5,135.0312,23.8613Q134.3203,21.2227,134.3203,19.8008Q134.3203,19.2539,134.6211,18.8984Q135.8789,17.3398,138.2031,15.6445Q138.61329999999998,15.371099999999998,138.9414,15.371099999999998Q139.2969,15.371099999999998,139.6797,15.6445Q140.9375,16.5469,141.7988,17.3398Q142.6602,18.1328,143.26170000000002,18.8984Q143.5625,19.2539,143.5625,19.9102L143.5625,19.7734Q143.5625,21.5508,144.20510000000002,24.435499999999998Q144.8477,27.320300000000003,145.9688,30.5195Q147.0898,33.7188,148.5664,36.3984L148.7031,36.3984Q149.9336,34.375,150.8906,32.0234Q151.8477,29.6719,152.5039,27.320300000000003Q153.1602,24.9688,153.502,23Q153.8438,21.0312,153.8438,19.8008L153.8438,19.9102Q153.8438,19.2539,154.1172,18.8984Q154.7461,18.1328,155.5938,17.3398Q156.4414,16.5469,157.6445,15.6445Q158.0273,15.371099999999998,158.3555,15.371099999999998Q158.73829999999998,15.371099999999998,159.0664,15.6445Q160.297,16.5469,161.14499999999998,17.3398Q161.99200000000002,18.1328,162.594,18.8984Q162.86700000000002,19.2539,162.86700000000002,19.8555Q162.84,21.332,162.102,23.998Q161.363,26.664099999999998,160.119,29.849600000000002Q158.875,33.0352,157.3438,36.1113Q155.8125,39.1875,154.22660000000002,41.457Q153.2695,42.8516,152.5039,43.4258Q151.73829999999998,44,149.85160000000002,44L146.9531,44Q144.9844,44,144.23239999999998,43.4531Q143.4805,42.9062,142.55079999999998,41.457ZM134.3203,19.7734L134.3203,19.8008Q134.3203,19.8555,134.3203,19.9102L134.3203,19.7734ZM162.86700000000002,19.8008L162.86700000000002,19.9102L162.86700000000002,19.8555Q162.86700000000002,19.8281,162.86700000000002,19.8008ZM181.652,44.6836Q177.031,44.6836,173.613,43.1934Q170.195,41.7031,168.309,38.5586Q166.422,35.4141,166.422,30.4375Q166.422,22.9727,170.25,19.1445Q174.078,15.316400000000002,180.422,15.316400000000002Q184.551,15.316400000000002,187.40800000000002,16.793Q190.266,18.2695,191.756,20.8672Q193.246,23.4648,193.246,26.800800000000002Q193.246,30.054699999999997,191.578,31.339799999999997Q189.91,32.625,186.711,32.625L174.98000000000002,32.625Q175.199,35.4414,177.04500000000002,36.918Q178.89100000000002,38.3945,182.062,38.3945Q184.578,38.3945,186.096,37.6426Q187.613,36.8906,188.215,36.4531Q188.734,36.0703,189.391,36.0977Q189.91,36.0977,190.881,36.3027Q191.852,36.5078,192.809,37.0547Q193.492,37.4102,193.492,38.0391Q193.492,38.3945,193.355,39.0508Q193.273,39.4336,193.082,40.1582Q192.891,40.8828,192.59,41.5117Q192.426,41.8125,192.07,42.0859Q191.523,42.4688,190.307,43.0977Q189.09,43.7266,186.98399999999998,44.2051Q184.87900000000002,44.6836,181.652,44.6836ZM174.926,27.0195L183.84,27.0195Q185.23399999999998,27.0195,185.23399999999998,25.7344Q185.23399999999998,23.793,184.018,22.4668Q182.801,21.1406,180.36700000000002,21.1406Q177.715,21.1406,176.471,22.8359Q175.227,24.5312,174.926,27.0195ZM202.844,44.5742Q202.27,44.8203,202.023,44.8203Q201.777,44.8203,201.504,44.6289Q200.875,44.1914,200.068,42.4824Q199.262,40.7734,199.262,37.2188L199.262,5.5547Q199.262,4.8984000000000005,199.535,4.542999999999999Q200.684,3.0390999999999995,202.898,1.2890599999999992Q203.281,1.0156200000000002,203.582,1.0156200000000002Q203.938,1.0156200000000002,204.266,1.2890599999999992Q205.441,2.1914,206.248,2.984400000000001Q207.055,3.7773000000000003,207.629,4.542999999999999Q207.902,4.8984000000000005,207.902,5.5547L207.902,35.5508Q207.902,37.3555,208.203,38.627Q208.504,39.8984,208.914,40.6641Q209.379,41.5664,208.559,41.9492L202.844,44.5742ZM228.82,44.6836Q221.93,44.6836,217.91,41.0195Q213.891,37.3555,213.891,30.1094Q213.891,22.6719,218.061,18.9941Q222.23,15.316400000000002,229.203,15.316400000000002Q235.93,15.316400000000002,239.977,18.9395Q244.023,22.5625,244.023,29.617199999999997Q244.023,36.9727,239.977,40.8281Q235.93,44.6836,228.82,44.6836ZM229.094,38.0664Q232.102,38.0664,233.633,36.1934Q235.164,34.3203,235.164,29.7812Q235.164,25.460900000000002,233.619,23.6973Q232.074,21.9336,229.039,21.9336Q226.113,21.9336,224.432,23.834Q222.75,25.7344,222.75,30Q222.75,34.457,224.35,36.2617Q225.949,38.0664,229.094,38.0664ZM267.32,15.316400000000002Q271.312,15.316400000000002,273.89599999999996,17.1074Q276.48,18.8984,277.752,22.0293Q279.023,25.160200000000003,279.023,29.207Q279.023,33.582,277.533,37.082Q276.043,40.582,273.145,42.6328Q270.246,44.6836,265.953,44.6836Q263.738,44.6836,262.303,44.1777Q260.86699999999996,43.6719,260.006,42.9746Q259.145,42.2773,258.652,41.7031L258.543,41.7031L258.543,53.3516Q258.543,54.0078,258.27,54.3633Q257.121,55.8672,254.906,57.6172Q254.523,57.890600000000006,254.223,57.890600000000006Q253.895,57.890600000000006,253.539,57.6172Q252.363,56.7148,251.557,55.9219Q250.75,55.1289,250.176,54.3633Q249.902,54.0078,249.902,53.3516L249.902,19.6367Q249.902,18.9805,250.176,18.625Q250.75,17.8594,251.557,17.0664Q252.363,16.2734,253.539,15.371099999999998Q253.895,15.0977,254.277,15.0977Q254.633,15.0977,255.016,15.371099999999998Q256.164,16.2734,256.98400000000004,17.0938Q257.805,17.9141,258.43399999999997,18.7891L258.57,18.7891Q259.03499999999997,18.2148,259.99199999999996,17.3945Q260.949,16.5742,262.71299999999997,15.9453Q264.477,15.316400000000002,267.32,15.316400000000002ZM263.957,37.7109Q266.90999999999997,37.7109,268.53700000000003,35.6465Q270.164,33.582,270.164,29.6719Q270.164,22.2891,264.094,22.2891Q261.523,22.2891,260.293,23.3418Q259.062,24.3945,258.543,25.570300000000003L258.543,31.5039Q258.543,34.1562,259.90999999999997,35.9336Q261.277,37.7109,263.957,37.7109Z" fill="#3D3D3D" fill-opacity="1"/><path d="M298.629,44.6836Q294.00800000000004,44.6836,290.59000000000003,43.1934Q287.172,41.7031,285.28499999999997,38.5586Q283.398,35.4141,283.398,30.4375Q283.398,22.9727,287.227,19.1445Q291.055,15.316400000000002,297.398,15.316400000000002Q301.527,15.316400000000002,304.385,16.793Q307.24199999999996,18.2695,308.73199999999997,20.8672Q310.223,23.4648,310.223,26.800800000000002Q310.223,30.054699999999997,308.555,31.339799999999997Q306.887,32.625,303.688,32.625L291.957,32.625Q292.176,35.4414,294.02099999999996,36.918Q295.86699999999996,38.3945,299.039,38.3945Q301.555,38.3945,303.072,37.6426Q304.59000000000003,36.8906,305.19100000000003,36.4531Q305.711,36.0703,306.36699999999996,36.0977Q306.887,36.0977,307.85699999999997,36.3027Q308.828,36.5078,309.78499999999997,37.0547Q310.469,37.4102,310.469,38.0391Q310.469,38.3945,310.332,39.0508Q310.25,39.4336,310.05899999999997,40.1582Q309.86699999999996,40.8828,309.56600000000003,41.5117Q309.402,41.8125,309.047,42.0859Q308.5,42.4688,307.283,43.0977Q306.06600000000003,43.7266,303.961,44.2051Q301.855,44.6836,298.629,44.6836ZM291.902,27.0195L300.81600000000003,27.0195Q302.211,27.0195,302.211,25.7344Q302.211,23.793,300.994,22.4668Q299.777,21.1406,297.344,21.1406Q294.69100000000003,21.1406,293.447,22.8359Q292.203,24.5312,291.902,27.0195ZM324.879,21.1953L324.988,21.1953Q327.039,15.5078,332.371,15.5078Q333.055,15.5078,333.492,15.5762Q333.93,15.6445,334.094,15.699200000000001Q334.504,15.835899999999999,334.504,16.3281L334.504,22.918Q334.504,23.7656,333.52,23.3828Q333.191,23.2461,332.576,23.0957Q331.961,22.9453,330.867,22.9453Q328.051,22.9453,326.465,25.0098Q324.879,27.074199999999998,324.879,30.6289L324.879,42.5508Q324.879,43.3711,324.537,43.6855Q324.195,44,323.375,44L317.742,44Q316.922,44,316.58,43.6855Q316.238,43.3711,316.238,42.5508L316.238,19.6367Q316.238,18.9805,316.512,18.625Q317.086,17.8594,317.893,17.0664Q318.699,16.2734,319.875,15.371099999999998Q320.094,15.207,320.312,15.1523Q320.531,15.0977,320.695,15.0977Q321.078,15.0977,321.461,15.371099999999998Q323.73,17.1484,324.633,18.4062Q324.879,18.7344,324.879,19.1719L324.879,21.1953Z" fill="#2B85FB" fill-opacity="1"/></g><g clip-path="url(#master_svg1_6_003)"><g></g><g><path d="M13.280000000000001,45.168L8,39.888000000000005L16.256,31.631999999999998L8,23.328L13.280000000000001,18L26.864,31.584L13.280000000000001,45.168ZM28.64,39.216L50.24,39.216L50.24,46.704L28.64,46.704L28.64,39.216Z" fill="#00B578" fill-opacity="1"/></g></g></g></svg>